<?xml version="1.0" encoding="UTF-8" standalone="no"?>
<svg width="15px" height="15px" viewBox="0 0 15 15" version="1.1" xmlns="http://www.w3.org/2000/svg" xmlns:xlink="http://www.w3.org/1999/xlink">
    <!-- Generator: Sketch 45.2 (43514) - http://www.bohemiancoding.com/sketch -->
    <title>Поиск icon</title>
    <desc>Created with Sketch.</desc>
    <defs></defs>
    <g id="Page-1" stroke="none" stroke-width="1" fill="none" fill-rule="evenodd">
        <g id="Лента-новостей" transform="translate(-1341.000000, -36.000000)" fill="#393745">
            <g id="Шапка" transform="translate(10.000000, 33.000000)">
                <path d="M1346,16.75 L1344.75,18 L1340.56897,14.0560345 C1340.08046,14.4008638 1339.53808,14.6702577 1338.94181,14.8642241 C1338.34554,15.0581906 1337.72414,15.1551724 1337.07759,15.1551724 C1336.24425,15.1551724 1335.45762,14.997128 1334.71767,14.6810345 C1333.97773,14.3649409 1333.33118,13.9303189 1332.77802,13.3771552 C1332.22485,12.8239915 1331.79023,12.1774462 1331.47414,11.4375 C1331.15804,10.6975538 1331,9.91092371 1331,9.07758621 C1331,8.22988082 1331.15804,7.43965884 1331.47414,6.70689655 C1331.79023,5.97413427 1332.22485,5.33118093 1332.77802,4.77801724 C1333.33118,4.22485356 1333.97773,3.79023147 1334.71767,3.47413793 C1335.45762,3.1580444 1336.24425,3 1337.07759,3 C1337.92529,3 1338.71551,3.1580444 1339.44828,3.47413793 C1340.18104,3.79023147 1340.82399,4.22485356 1341.37716,4.77801724 C1341.93032,5.33118093 1342.36494,5.97772619 1342.68103,6.71767241 C1342.99713,7.45761864 1343.15517,8.24424871 1343.15517,9.07758621 C1343.15517,9.78161272 1343.04023,10.4533014 1342.81034,11.0926724 C1342.58046,11.7320434 1342.26437,12.3103422 1341.86207,12.8275862 L1346,16.75 Z M1337,13 C1337.55783,13 1338.07823,12.8945589 1338.56122,12.6836735 C1339.04422,12.4727881 1339.46939,12.1870766 1339.83673,11.8265306 C1340.20408,11.4659846 1340.48979,11.0442201 1340.69388,10.5612245 C1340.89796,10.0782289 1341,9.55782592 1341,9 C1341,8.44217408 1340.89796,7.92177112 1340.69388,7.43877551 C1340.48979,6.9557799 1340.20408,6.53401541 1339.83673,6.17346939 C1339.46939,5.81292337 1339.04422,5.52721194 1338.56122,5.31632653 C1338.07823,5.10544112 1337.55783,5 1337,5 C1336.44217,5 1335.92177,5.10544112 1335.43878,5.31632653 C1334.95578,5.52721194 1334.53402,5.81292337 1334.17347,6.17346939 C1333.81292,6.53401541 1333.52721,6.9557799 1333.31633,7.43877551 C1333.10544,7.92177112 1333,8.44217408 1333,9 C1333,9.55782592 1333.10544,10.0782289 1333.31633,10.5612245 C1333.52721,11.0442201 1333.81292,11.4659846 1334.17347,11.8265306 C1334.53402,12.1870766 1334.95578,12.4727881 1335.43878,12.6836735 C1335.92177,12.8945589 1336.44217,13 1337,13 Z" id="Поиск-icon"></path>
            </g>
        </g>
    </g>
</svg>