<?xml version="1.0" encoding="UTF-8" standalone="no"?>
<svg width="15px" height="14px" viewBox="0 0 15 14" version="1.1" xmlns="http://www.w3.org/2000/svg" xmlns:xlink="http://www.w3.org/1999/xlink">
    <!-- Generator: Sketch 45.2 (43514) - http://www.bohemiancoding.com/sketch -->
    <title>Shape</title>
    <desc>Created with Sketch.</desc>
    <defs></defs>
    <g id="Page-1" stroke="none" stroke-width="1" fill="none" fill-rule="evenodd">
        <g id="Лента-новостей" transform="translate(-104.000000, -34.000000)" fill="#393745">
            <g id="Шапка" transform="translate(10.000000, 33.000000)">
                <g id="social_icon" transform="translate(94.000000, 1.000000)">
                    <path d="M9.28861366,8.29094629 C8.89616645,8.6799495 8.89516531,9.31395472 9.2846091,9.70495794 C9.67405288,10.0969612 10.3087762,10.0979612 10.7002222,9.70895797 L14.7047856,5.73192521 C15.0972328,5.34292201 15.0982339,4.70891679 14.7087902,4.31791357 L10.7042268,0.29488043 C10.314783,-0.097122799 9.68005973,-0.0981228072 9.28861366,0.290880397 C8.89616645,0.679883601 8.89516531,1.31388882 9.2846091,1.70489204 L11.5692125,3.99991095 L6.99099544,3.99991095 C3.11958382,3.99991095 -0.0109835836,7.13593678 2.8965626e-05,11.0049686 L0.00603581065,13.0029851 C0.00803809233,13.5549896 0.457550328,14.0019933 1.01018007,13.9999933 C1.56280981,13.9979933 2.01031977,13.5489896 2.00831749,12.9969851 L2.00231064,10.9989686 C1.99430151,8.23694585 4.22784672,5.99992742 6.99099544,5.99992742 L11.5952421,5.99992742 L9.28861366,8.29094629 Z" id="Shape"></path>
                </g>
            </g>
        </g>
    </g>
</svg>